<svg width="287" height="75" viewBox="0 0 287 75" fill="none" xmlns="http://www.w3.org/2000/svg">
<path d="M144.664 32.6758C141.754 31.2695 139.146 30.2051 136.842 29.4824C131.861 35.498 128.922 41.3281 128.023 46.9727C127.887 47.8906 127.818 48.8184 127.818 49.7559C127.818 50.6738 127.906 51.6016 128.082 52.5391C126.129 53.9844 124.117 55.0586 122.047 55.7617C121.324 56.0156 120.738 56.1426 120.289 56.1426C119.84 56.1426 119.371 56.0254 118.883 55.791C118.414 55.5566 117.984 55.1953 117.594 54.707C116.656 53.6133 116.188 52.1582 116.188 50.3418C116.188 48.5254 116.51 46.6895 117.154 44.834C117.818 42.9785 118.727 41.1035 119.879 39.209C122.047 35.6348 125.172 31.9141 129.254 28.0469C127.652 27.9492 126.061 27.9004 124.479 27.9004C122.896 27.9004 121.246 28.1055 119.527 28.5156C115.895 29.375 113.727 31.0156 113.023 33.4375C112.887 33.8672 112.818 34.4336 112.818 35.1367C112.818 35.8203 113.053 36.709 113.521 37.8027C113.131 38.5254 112.223 38.8184 110.797 38.6816C109.312 38.5449 108.15 38.1445 107.311 37.4805C105.729 36.2305 104.938 34.8535 104.938 33.3496C104.938 30.4199 106.988 28.0664 111.09 26.2891C114.898 24.6289 119.537 23.7988 125.006 23.7988C127.447 23.7988 130.123 24.1113 133.033 24.7363C140.357 18.6426 147.867 14.1797 155.562 11.3477C159.273 9.98047 162.555 9.29688 165.406 9.29688C166.734 9.29688 167.721 9.59961 168.365 10.2051C169.029 10.791 169.361 11.543 169.361 12.4609C169.361 13.3594 169.117 14.4824 168.629 15.8301C168.16 17.1777 167.564 18.6816 166.842 20.3418C166.119 21.9824 165.338 23.75 164.498 25.6445C163.678 27.5391 162.906 29.4727 162.184 31.4453C160.504 36.0352 159.664 39.9219 159.664 43.1055C159.664 45.4297 160.689 46.5918 162.74 46.5918C163.326 46.5918 163.971 46.4453 164.674 46.1523C165.045 46.4062 165.348 46.748 165.582 47.1777C165.816 47.5879 165.934 47.9492 165.934 48.2617C165.934 48.5742 165.807 49.0234 165.553 49.6094C165.318 50.1953 164.977 50.791 164.527 51.3965C164.078 51.9824 163.531 52.5488 162.887 53.0957C162.262 53.6426 161.568 54.1309 160.807 54.5605C157.955 56.1816 154.869 56.4258 151.549 55.293C148.795 54.375 146.832 52.4805 145.66 49.6094C145.074 48.125 144.781 46.4355 144.781 44.541C144.781 42.6465 145.074 40.8691 145.66 39.209C146.246 37.5293 147.008 35.8887 147.945 34.2871C148.902 32.666 149.986 31.1035 151.197 29.5996C152.428 28.0957 153.678 26.6602 154.947 25.293C156.236 23.9063 157.486 22.6074 158.697 21.3965C159.928 20.1855 161.012 19.0625 161.949 18.0273C164.078 15.7422 165.143 14.1699 165.143 13.3105C165.143 12.8613 164.732 12.6367 163.912 12.6367C160.357 12.6367 156.305 13.9648 151.754 16.6211C147.359 19.1992 143.238 22.5293 139.391 26.6113C142.496 27.7246 144.381 28.7305 145.045 29.6289C145.807 30.6445 145.68 31.6602 144.664 32.6758ZM191.715 14.2773C193.883 14.2773 194.967 16.1035 194.967 19.7559C194.967 24.5801 192.037 29.6777 186.178 35.0488C183.951 37.0996 181.607 38.8672 179.146 40.3516C179.4 43.3594 180.504 45.0781 182.457 45.5078C183.082 45.6445 183.814 45.7129 184.654 45.7129C185.514 45.7129 186.432 45.6055 187.408 45.3906C188.404 45.1562 189.391 44.7852 190.367 44.2773C192.535 43.1641 194.342 41.5039 195.787 39.2969C196.666 39.2383 197.105 39.5996 197.105 40.3809C197.105 40.6934 196.891 41.3477 196.461 42.3438C196.051 43.3398 195.279 44.6387 194.146 46.2402C193.014 47.8223 191.656 49.2578 190.074 50.5469C186.441 53.5156 182.408 55 177.975 55C172.857 55 169.762 52.8125 168.688 48.4375C168.336 47.0703 168.16 45.5469 168.16 43.8672C168.16 42.168 168.414 40.459 168.922 38.7402C169.43 37.0215 170.113 35.3223 170.973 33.6426C171.832 31.9434 172.828 30.2832 173.961 28.6621C175.113 27.041 176.324 25.5176 177.594 24.0918C178.883 22.666 180.191 21.3574 181.52 20.166C182.848 18.9551 184.137 17.9102 185.387 17.0312C188.062 15.1953 190.172 14.2773 191.715 14.2773ZM179.146 36.8066C182.428 34.7559 185.191 32.2949 187.438 29.4238C189.723 26.5137 190.865 23.9453 190.865 21.7188C190.865 20.6055 190.631 19.8047 190.162 19.3164C190.006 19.1406 189.732 19.0527 189.342 19.0527C188.951 19.0527 188.404 19.3066 187.701 19.8145C186.998 20.3027 186.275 20.9766 185.533 21.8359C184.791 22.6953 184.059 23.7109 183.336 24.8828C182.633 26.0352 181.988 27.2656 181.402 28.5742C180.113 31.5234 179.361 34.2676 179.146 36.8066ZM215.035 22.6855C214.234 23.0762 213.365 23.3789 212.428 23.5938C211.51 23.7891 210.709 23.8867 210.025 23.8867C209.342 23.8867 208.727 23.8086 208.18 23.6523C207.633 23.4766 207.145 23.2324 206.715 22.9199C205.777 22.2363 205.309 21.416 205.309 20.459C205.309 19.502 205.475 18.6914 205.807 18.0273C206.158 17.3633 206.656 16.7969 207.301 16.3281C208.688 15.3125 210.348 14.8047 212.281 14.8047C214.234 14.8047 215.65 15.2051 216.529 16.0059C217.428 16.8066 217.877 17.7246 217.877 18.7598C217.877 19.7949 217.604 20.6055 217.057 21.1914C216.51 21.7773 215.836 22.2754 215.035 22.6855ZM192.477 51.6016C192.066 50.7227 191.861 49.6484 191.861 48.3789C191.861 47.0898 192.135 45.7324 192.682 44.3066C193.248 42.8809 193.961 41.4648 194.82 40.0586C195.699 38.6328 196.676 37.2656 197.75 35.957C198.824 34.6289 199.889 33.457 200.943 32.4414C203.268 30.2344 204.977 29.1309 206.07 29.1309C206.539 29.1309 207.057 29.3359 207.623 29.7461C208.209 30.1367 208.58 30.4297 208.736 30.625C205.787 33.7891 203.922 36.8457 203.141 39.7949C202.887 40.6934 202.76 41.5723 202.76 42.4316C202.76 43.2715 203.082 44.0332 203.727 44.7168C204.371 45.3809 205.172 45.7129 206.129 45.7129C207.086 45.7129 207.975 45.5371 208.795 45.1855C209.635 44.8145 210.455 44.3359 211.256 43.75C212.838 42.5586 214.225 41.0742 215.416 39.2969C216.295 39.2383 216.734 39.5996 216.734 40.3809C216.734 41.0254 216.324 42.041 215.504 43.4277C214.703 44.8145 213.902 46.0156 213.102 47.0312C212.301 48.0273 211.383 49.0137 210.348 49.9902C209.332 50.9668 208.219 51.8359 207.008 52.5977C204.293 54.3164 201.5 55.1758 198.629 55.1758C195.602 55.1758 193.551 53.9844 192.477 51.6016ZM229.332 49.4043C225.895 52.627 222.652 54.2383 219.605 54.2383C217.613 54.2383 215.943 53.6328 214.596 52.4219C213.15 51.1328 212.428 49.3066 212.428 46.9434C212.428 44.2285 213.375 41.377 215.27 38.3887C216.871 35.8691 218.824 33.6523 221.129 31.7383C223.277 29.9609 224.889 29.0723 225.963 29.0723C226.646 29.0723 227.203 29.3652 227.633 29.9512C226.324 30.9473 225.172 32.2461 224.176 33.8477C222.301 36.8945 221.363 39.1895 221.363 40.7324C221.363 43.9551 222.242 45.5664 224 45.5664C225.816 45.5664 227.975 44.2969 230.475 41.7578C233.033 39.1602 234.811 36.2695 235.807 33.0859C235.963 32.0312 236.09 30.8301 236.188 29.4824C237.828 28.877 238.99 28.9844 239.674 29.8047C239.928 30.1172 240.055 30.6348 240.055 31.3574C240.055 32.0605 239.967 32.9785 239.791 34.1113C239.635 35.2441 239.371 36.5234 239 37.9492C238.258 40.9766 237.203 44.1406 235.836 47.4414C238.629 46.6797 241.432 44.8633 244.244 41.9922C245.104 41.1133 245.836 40.2148 246.441 39.2969C247.32 39.2383 247.76 39.5996 247.76 40.3809C247.76 40.6934 247.525 41.416 247.057 42.5488C246.588 43.6621 245.816 44.9609 244.742 46.4453C243.688 47.9102 242.516 49.1992 241.227 50.3125C238.59 52.5781 235.67 54.0234 232.467 54.6484C228.697 61.5625 224.762 66.1133 220.66 68.3008C219.176 69.1016 217.76 69.502 216.412 69.502C215.064 69.502 213.814 69.3066 212.662 68.916C211.51 68.5254 210.475 67.9883 209.557 67.3047C207.486 65.7227 206.451 63.8379 206.451 61.6504C206.451 60.8105 206.734 59.9414 207.301 59.043C208.355 57.3633 209.488 56.2891 210.699 55.8203C212.965 57.3438 214.898 58.291 216.5 58.6621C217.203 58.8184 217.945 58.8965 218.727 58.8965C219.508 58.8965 220.328 58.6621 221.188 58.1934C222.066 57.7246 222.965 57.0703 223.883 56.2305C225.797 54.4531 227.613 52.1777 229.332 49.4043ZM260.035 50.3125C257.359 53.4375 254.098 55 250.25 55C247.809 55 245.855 54.2676 244.391 52.8027C242.945 51.3574 242.223 49.4531 242.223 47.0898C242.223 44.1016 243.395 41.2012 245.738 38.3887C248.004 35.6543 250.973 33.4277 254.645 31.709C258.453 29.9316 262.389 29.043 266.451 29.043C267.994 29.043 269.098 29.2871 269.762 29.7754C270.289 29.1504 270.758 28.7891 271.168 28.6914C271.598 28.5742 271.93 28.5156 272.164 28.5156C272.906 28.5156 273.697 28.623 274.537 28.8379C274.459 29.0918 274.293 29.5312 274.039 30.1562C273.785 30.7617 273.502 31.4844 273.189 32.3242C272.877 33.1641 272.545 34.082 272.193 35.0781C270.924 38.6328 270.289 41.2988 270.289 43.0762C270.289 44.834 270.846 45.7129 271.959 45.7129C273.404 45.7129 275.016 45.0586 276.793 43.75C278.375 42.5586 279.762 41.0742 280.953 39.2969C281.832 39.2383 282.271 39.5996 282.271 40.3809C282.271 41.0449 281.861 42.0605 281.041 43.4277C280.24 44.7949 279.459 45.9766 278.697 46.9727C277.936 47.9688 277.086 48.9453 276.148 49.9023C275.211 50.8594 274.215 51.7188 273.16 52.4805C270.797 54.1602 268.492 55 266.246 55C263.395 55 261.48 54.1406 260.504 52.4219C260.191 51.8945 260.035 51.4355 260.035 51.0449C260.035 50.6348 260.035 50.3906 260.035 50.3125ZM251.656 42.3145C251.656 44.5801 252.604 45.7129 254.498 45.7129C256.588 45.7129 259.049 44.0234 261.881 40.6445C263.385 38.8477 264.693 37.1289 265.807 35.4883C266.939 33.8477 267.799 32.5977 268.385 31.7383C263.502 31.7773 259.449 32.8906 256.227 35.0781C253.18 37.1484 251.656 39.5605 251.656 42.3145Z" fill="#FDD0F8"/>
<path d="M7.08984 44.2441C6.07422 43.1309 5.24414 42.0664 4.59961 41.0508C3.95508 40.0352 3.63281 39.2246 3.63281 38.6191C3.63281 38.0137 3.94531 37.3398 4.57031 36.5977C5.21484 35.8359 6.06445 35.0156 7.11914 34.1367C8.17383 33.2578 9.38477 32.3301 10.752 31.3535C12.1191 30.377 13.5254 29.4199 14.9707 28.4824C16.4355 27.5449 17.8906 26.6562 19.3359 25.8164C20.8008 24.957 22.1484 24.2148 23.3789 23.5898C26.0547 22.1836 27.7246 21.4805 28.3887 21.4805C28.9551 21.4805 29.6094 22.0469 30.3516 23.1797C30.5273 23.4336 30.6543 23.6387 30.7324 23.7949C29.3066 24.459 27.002 25.9141 23.8184 28.1602C20.6543 30.3867 18.5547 31.8906 17.5195 32.6719C16.5039 33.4336 15.6055 34.1367 14.8242 34.7812C13.0664 36.207 12.1973 37.0957 12.2168 37.4473C12.2559 37.7793 12.4609 38.1797 12.832 38.6484C13.2031 39.1172 13.6914 39.6445 14.2969 40.2305C15.4297 41.3047 16.9141 42.5547 18.75 43.9805C20.6055 45.3867 22.7246 46.9102 25.1074 48.5508C25.0293 49.1562 24.5801 49.9082 23.7598 50.8066C22.2559 52.5059 21.1914 53.3555 20.5664 53.3555C19.9414 53.3555 19.0625 53.0918 17.9297 52.5645C16.8164 52.0176 15.625 51.3145 14.3555 50.4551C13.0859 49.5762 11.8164 48.5996 10.5469 47.5254C9.27734 46.4316 8.125 45.3379 7.08984 44.2441ZM68.9062 6.74414C70.4102 7.25195 71.1621 7.68164 71.1621 8.0332C71.1621 8.36523 70.8789 9.12695 70.3125 10.3184C69.7461 11.4902 68.9648 12.9648 67.9688 14.7422C66.9727 16.5195 65.8105 18.5312 64.4824 20.7773C63.1543 23.0039 61.7285 25.3477 60.2051 27.8086C58.7012 30.2695 57.1289 32.7793 55.4883 35.3379C53.8672 37.877 52.2559 40.3477 50.6543 42.75C49.0723 45.1328 47.5488 47.3789 46.084 49.4883C44.6191 51.5977 43.2812 53.4336 42.0703 54.9961C39.4922 58.3945 37.8613 60.0938 37.1777 60.0938C36.123 60.0938 34.7754 59.5078 33.1348 58.3359C32.7051 58.043 32.4023 57.7793 32.2266 57.5449C35.332 54.791 41.9629 46.2266 52.1191 31.8516C58.3105 23.1016 62.5781 16.8711 64.9219 13.1602C67.2852 9.42969 68.6133 7.29102 68.9062 6.74414ZM86.6309 35.3965C86.6309 34.0488 83.0664 29.918 75.9375 23.0039C76.3477 22.4375 76.7969 22.0469 77.2852 21.832C77.7734 21.5977 78.1445 21.4805 78.3984 21.4805C78.6523 21.4805 79.082 21.6465 79.6875 21.9785C80.3125 22.3105 81.0254 22.7598 81.8262 23.3262C82.6465 23.8926 83.5254 24.5566 84.4629 25.3184C85.4004 26.0801 86.3379 26.8906 87.2754 27.75C88.2129 28.5898 89.1113 29.459 89.9707 30.3574C90.8301 31.2363 91.5918 32.0859 92.2559 32.9062C93.7207 34.7422 94.4531 36.1484 94.4531 37.125C94.4531 38.9219 91.0352 42.125 84.1992 46.7344C80.0391 49.5273 76.5039 51.5586 73.5938 52.8281C72.7539 53.1797 72.1094 53.3555 71.6602 53.3555C71.2305 53.3555 70.7422 53.1699 70.1953 52.7988C69.668 52.4082 69.1602 51.9395 68.6719 51.3926C67.7148 50.2793 67.041 49.1953 66.6504 48.1406C69.7168 46.7344 74.4434 44.0098 80.8301 39.9668C84.6973 37.5254 86.6309 36.002 86.6309 35.3965Z" fill="#F1F1F1"/>
</svg>
