<?xml version="1.0" standalone="no"?>
<!DOCTYPE svg PUBLIC "-//W3C//DTD SVG 20010904//EN"
 "http://www.w3.org/TR/2001/REC-SVG-20010904/DTD/svg10.dtd">
<svg version="1.0" xmlns="http://www.w3.org/2000/svg"
 width="2296.000000pt" height="2296.000000pt" viewBox="0 0 2296.000000 2296.000000"
 preserveAspectRatio="xMidYMid meet">
<metadata>
Created by potrace 1.11, written by Peter Selinger 2001-2013
</metadata>
<g transform="translate(0.000000,2296.000000) scale(0.100000,-0.100000)"
fill="#000000" stroke="none">
<path d="M5502 13933 c3 -8 -30 -64 -97 -168 -18 -27 -38 -61 -45 -75 -7 -14
-16 -27 -20 -30 -3 -3 -17 -23 -29 -45 -13 -22 -38 -62 -56 -90 -58 -90 -170
-265 -180 -283 -5 -9 -12 -19 -15 -22 -14 -14 -70 -102 -70 -109 0 -5 -3 -11
-8 -13 -4 -1 -35 -43 -68 -93 -131 -195 -209 -310 -214 -315 -3 -3 -19 -25
-35 -50 -16 -25 -32 -47 -35 -50 -3 -3 -23 -32 -45 -65 -22 -33 -44 -64 -48
-70 -5 -5 -50 -71 -102 -145 -52 -74 -97 -139 -102 -145 -4 -5 -17 -23 -27
-40 -11 -16 -23 -34 -28 -40 -12 -13 -142 -198 -198 -281 -25 -37 -53 -75 -62
-85 -10 -11 -18 -22 -18 -25 0 -3 -13 -22 -28 -42 -16 -20 -82 -111 -147 -202
-65 -91 -148 -205 -185 -255 -36 -49 -97 -133 -135 -185 -38 -52 -72 -97 -75
-100 -3 -3 -30 -39 -60 -80 -30 -41 -60 -82 -67 -90 -7 -8 -69 -89 -138 -179
-69 -91 -138 -178 -153 -196 -15 -17 -40 -48 -57 -69 -16 -22 -44 -55 -60 -75
-17 -20 -39 -47 -50 -60 -45 -53 -114 -129 -188 -205 l-78 -81 38 -33 c54 -47
61 -52 72 -52 5 0 11 -4 13 -9 2 -4 33 -24 70 -44 107 -58 190 -76 238 -51 30
15 109 91 170 164 25 29 50 58 55 64 24 26 221 285 290 380 11 15 36 49 55 75
19 27 42 58 50 71 8 12 34 48 58 81 23 32 42 61 42 64 0 3 5 11 11 18 24 28
119 168 119 176 0 5 3 11 8 13 10 4 132 186 132 197 0 5 4 11 9 13 8 3 27 30
101 145 19 30 74 114 121 186 155 236 383 592 414 645 6 9 13 19 16 22 4 3 9
15 13 28 4 12 12 22 17 22 5 0 9 5 9 10 0 6 8 23 19 38 21 31 223 358 253 412
11 19 35 58 53 85 55 85 195 326 195 335 0 5 3 10 8 12 9 4 92 147 92 159 0 5
5 9 10 9 6 0 10 6 10 13 0 7 13 34 29 59 16 26 46 77 65 114 20 37 40 72 46
79 5 6 7 15 3 18 -3 4 -2 7 4 7 9 0 32 39 29 50 0 3 8 19 20 35 19 27 86 162
130 260 9 22 18 58 18 79 1 39 0 40 -67 74 -67 33 -119 49 -115 35z"/>
<path d="M13147 13734 c-1 -1 -33 -4 -72 -7 -63 -5 -94 -10 -214 -32 -19 -3
-37 -8 -41 -10 -4 -2 -21 -7 -39 -10 -42 -7 -179 -48 -256 -75 -33 -12 -64
-23 -70 -24 -30 -8 -150 -56 -237 -95 -26 -12 -50 -21 -53 -21 -7 0 -314 -146
-335 -159 -8 -5 -55 -31 -105 -57 -49 -25 -92 -51 -93 -55 -2 -5 -7 -7 -12 -4
-4 3 -13 -2 -20 -10 -7 -8 -19 -15 -26 -15 -8 0 -14 -3 -14 -7 0 -5 -23 -19
-50 -32 -28 -14 -50 -28 -50 -32 0 -4 -9 -10 -19 -14 -16 -5 -50 -26 -201
-124 -63 -41 -276 -196 -278 -203 -2 -4 -10 -8 -17 -8 -7 0 -15 -3 -17 -8 -2
-6 -62 -54 -123 -99 -6 -5 -44 -35 -85 -69 -47 -38 -82 -60 -95 -58 -11 2 -36
6 -55 10 -56 12 -58 12 -128 23 -248 40 -647 47 -862 15 -203 -29 -245 -37
-411 -78 -161 -40 -449 -167 -507 -223 -7 -7 -16 -13 -20 -13 -14 0 -139 -126
-165 -165 -65 -99 -96 -234 -75 -328 39 -176 213 -327 407 -355 76 -11 178 -7
208 8 36 19 74 58 63 65 -19 11 -52 151 -52 215 0 72 4 96 25 156 40 111 124
199 257 271 44 24 147 65 170 68 3 0 10 3 15 6 6 4 24 10 40 13 17 3 41 9 55
12 64 13 140 26 190 31 55 6 439 7 517 2 l41 -3 -101 -101 c-108 -107 -257
-264 -257 -271 0 -2 -8 -12 -17 -23 -44 -45 -82 -91 -133 -156 -30 -38 -59
-74 -63 -80 -27 -33 -126 -179 -171 -253 -72 -117 -191 -353 -199 -396 -1 -6
-4 -13 -7 -16 -6 -5 -48 -137 -55 -167 -2 -10 -8 -38 -13 -63 -26 -116 -34
-309 -16 -383 7 -26 12 -48 12 -50 1 -5 24 -65 39 -99 9 -21 20 -38 25 -38 4
0 8 -5 8 -10 0 -18 83 -95 125 -115 43 -22 172 -28 210 -11 11 5 22 10 25 11
24 6 89 30 105 38 11 6 22 12 25 12 28 3 292 151 298 167 2 4 10 8 18 8 8 0
14 4 14 9 0 5 9 12 19 16 14 4 18 13 15 28 -24 121 -22 340 6 477 6 30 13 66
16 80 15 80 94 317 139 415 7 17 25 57 40 90 33 72 132 253 153 278 8 9 11 17
6 17 -5 0 -1 5 9 11 9 5 17 14 17 20 0 8 66 112 97 154 5 6 41 54 81 108 41
54 81 108 90 119 44 52 51 59 56 58 19 -4 207 -73 235 -86 18 -9 39 -17 45
-19 17 -3 59 -21 204 -87 l135 -62 28 34 c76 91 44 200 -84 284 -45 30 -165
90 -234 117 -23 9 -38 15 -100 40 l-33 14 118 115 c65 63 153 147 197 185 44
39 85 75 91 80 6 6 28 24 49 40 21 17 43 35 49 41 6 5 47 37 91 69 44 33 85
63 90 67 32 26 127 88 135 88 6 0 10 3 10 8 0 4 9 12 19 17 11 6 63 36 115 68
118 72 347 189 396 202 3 1 19 7 35 14 39 17 200 70 228 75 70 14 136 27 167
33 19 4 80 7 136 7 111 1 134 -8 134 -53 0 -31 -47 -131 -71 -151 -3 -3 -10
-12 -15 -21 -9 -17 -65 -87 -99 -125 -91 -101 -219 -236 -361 -380 -180 -181
-260 -265 -364 -384 -36 -40 -72 -81 -82 -91 -35 -37 -186 -227 -233 -294 -27
-38 -53 -71 -57 -73 -5 -2 -8 -8 -8 -14 0 -5 -12 -28 -27 -51 -139 -211 -263
-498 -288 -662 -2 -11 -6 -40 -11 -65 -11 -68 -6 -395 6 -395 1 0 3 -9 4 -21
6 -49 34 -140 57 -186 5 -10 9 -22 9 -28 0 -23 98 -168 149 -220 70 -70 120
-108 196 -147 57 -29 164 -68 216 -78 71 -15 90 -17 154 -20 39 -2 72 -5 75
-6 3 -1 9 -1 13 0 4 1 27 4 50 7 216 26 383 108 554 271 70 67 148 175 159
220 4 13 11 23 17 23 6 0 8 3 4 6 -3 3 -1 18 5 33 24 63 4 136 -54 197 l-30
32 -57 -18 c-99 -30 -210 -14 -274 40 -50 41 -75 134 -72 265 3 98 9 164 30
285 2 14 7 42 10 63 3 21 10 47 15 58 6 10 9 19 6 19 -2 0 2 24 10 53 8 28 17
63 20 77 26 126 230 664 355 935 13 28 24 52 24 55 0 3 11 28 24 55 113 246
235 560 263 675 14 59 19 198 7 205 -5 4 -9 13 -9 21 0 27 -67 99 -112 121
-24 12 -59 25 -78 29 -33 6 -188 13 -193 8z"/>
<path d="M15244 13325 c-168 -36 -408 -184 -679 -419 -69 -60 -351 -341 -380
-378 -5 -8 -26 -31 -45 -54 -33 -38 -57 -67 -129 -158 -17 -21 -31 -42 -31
-45 0 -3 -14 -20 -30 -38 -17 -18 -30 -35 -30 -39 0 -3 -15 -27 -33 -53 -74
-102 -277 -465 -277 -495 0 -3 -9 -25 -19 -49 -37 -79 -97 -274 -116 -372 -28
-150 -25 -449 5 -550 5 -16 11 -43 14 -60 22 -139 130 -315 251 -405 48 -36
179 -91 250 -105 17 -3 44 -9 60 -13 41 -9 339 -8 395 2 325 54 609 197 859
433 19 18 36 32 37 30 1 -1 5 -20 8 -42 6 -38 15 -79 32 -134 30 -99 130 -209
240 -265 48 -23 168 -48 242 -49 72 -1 211 10 233 18 8 2 25 6 39 9 103 19
270 87 394 163 144 88 233 161 387 318 70 71 79 77 80 55 0 -14 2 -32 4 -40 2
-8 5 -26 8 -40 17 -85 66 -169 142 -245 117 -117 243 -164 426 -160 117 3 134
6 237 41 153 51 326 158 471 291 19 17 37 30 39 28 8 -8 -145 -222 -243 -340
-71 -85 -191 -201 -261 -254 -38 -28 -74 -54 -79 -58 -11 -8 -53 -29 -120 -60
-43 -19 -200 -25 -280 -10 -105 20 -244 80 -396 173 -49 30 -96 54 -103 54
-35 0 -206 -149 -206 -179 0 -6 -4 -11 -9 -11 -14 0 -89 -135 -102 -183 -52
-192 57 -421 267 -562 83 -55 193 -108 254 -120 3 -1 32 -7 65 -14 49 -11 104
-18 170 -23 44 -2 156 16 221 37 80 25 226 100 283 145 18 14 56 43 84 65 52
39 200 184 267 260 42 48 174 222 215 285 17 25 34 50 38 55 25 32 126 202
127 213 0 6 3 12 8 12 4 0 13 12 19 28 34 73 50 89 105 102 68 16 195 58 231
76 15 8 27 11 27 7 0 -5 4 -3 8 2 4 6 21 16 37 23 25 11 120 66 200 115 10 7
33 24 50 39 16 16 34 28 38 28 4 0 19 12 32 26 14 15 25 24 25 21 0 -4 20 14
44 39 42 43 45 44 55 25 6 -11 11 -25 11 -31 0 -36 71 -157 135 -228 26 -30
154 -122 168 -122 3 0 18 -5 34 -11 15 -6 28 -10 28 -9 0 1 12 -3 28 -9 48
-18 88 -24 242 -33 6 0 37 3 70 6 250 28 440 120 618 297 37 38 67 67 68 66 0
-1 2 -23 4 -48 10 -132 138 -259 298 -298 41 -10 153 -23 192 -23 196 2 420
93 620 251 77 61 245 226 315 310 52 62 180 239 188 261 3 8 10 20 14 25 15
18 98 157 98 164 0 4 10 27 22 52 45 93 32 180 -28 192 -39 7 -49 1 -88 -53
-67 -93 -163 -194 -251 -265 -28 -22 -51 -43 -53 -47 -2 -5 -10 -8 -17 -8 -7
0 -15 -4 -17 -8 -6 -16 -152 -90 -210 -107 -186 -54 -258 -5 -262 179 -2 44 1
101 6 126 5 25 11 59 14 75 24 141 146 515 265 813 45 113 58 154 43 139 -3
-3 -18 -1 -33 5 -14 5 -64 11 -110 13 -97 3 -144 -11 -196 -61 l-35 -33 -45
20 c-25 11 -67 23 -93 27 -81 10 -402 4 -402 -8 0 -3 -8 -6 -17 -6 -33 -1
-108 -12 -123 -18 -8 -3 -28 -7 -45 -10 -16 -3 -48 -10 -70 -16 -22 -6 -51
-13 -64 -16 -13 -3 -34 -10 -45 -16 -12 -6 -22 -10 -24 -9 -4 3 -92 -25 -137
-44 -446 -184 -762 -429 -967 -750 -44 -68 -103 -184 -110 -215 -4 -20 -52
-66 -123 -121 -78 -58 -171 -119 -183 -119 -6 0 -12 -4 -14 -8 -7 -18 -233
-111 -243 -100 -2 2 13 47 34 99 22 53 58 151 81 220 22 68 44 131 47 139 3 8
7 20 9 25 35 125 75 272 78 289 3 11 5 21 6 21 1 0 3 8 5 19 2 10 9 39 15 65
13 56 18 83 25 136 3 22 8 47 10 55 3 8 8 44 11 80 15 171 9 223 -35 266 -42
43 -89 53 -180 40 -69 -10 -91 -29 -92 -79 -1 -23 -2 -53 -4 -67 -2 -14 -6
-52 -9 -85 -7 -63 -45 -198 -58 -203 -5 -2 -8 -10 -8 -19 0 -38 -183 -351
-211 -361 -5 -2 -9 -8 -9 -14 0 -5 -6 -15 -12 -23 -7 -7 -38 -41 -68 -76 -61
-70 -169 -175 -215 -211 -16 -12 -38 -30 -48 -39 -9 -9 -30 -22 -45 -30 -15
-8 -31 -20 -35 -26 -4 -7 -14 -13 -22 -13 -8 0 -29 -9 -47 -19 -37 -22 -139
-48 -178 -45 -84 5 -128 36 -166 119 -31 68 -36 93 -40 220 -3 93 0 121 20
185 21 69 65 174 86 210 5 8 22 40 36 70 15 30 30 57 33 60 10 9 71 111 71
120 0 4 7 10 15 14 8 3 15 12 15 20 0 8 49 65 109 125 l108 110 -21 20 c-94
88 -229 45 -476 -152 -85 -68 -256 -237 -315 -312 -22 -27 -49 -60 -59 -72
-11 -12 -36 -48 -57 -80 -22 -32 -42 -63 -47 -68 -16 -20 -90 -151 -122 -219
-35 -74 -98 -140 -213 -227 -185 -138 -389 -190 -518 -131 -58 26 -89 56 -125
117 -26 45 -29 59 -28 135 0 94 7 133 39 240 1 3 5 19 10 35 12 46 107 245
116 245 5 0 9 5 9 12 0 11 100 165 124 191 6 7 27 33 46 57 19 25 50 62 69 82
60 66 64 75 42 87 -11 6 -26 17 -34 25 -8 8 -41 29 -73 46 -69 38 -111 37
-196 -3 -110 -52 -312 -227 -464 -402 -27 -31 -54 -62 -59 -68 -6 -7 -24 -30
-40 -52 -17 -21 -37 -47 -46 -56 -27 -27 -184 -260 -222 -330 -38 -68 -75
-108 -162 -171 -27 -21 -55 -41 -61 -45 -48 -36 -189 -102 -269 -126 -101 -30
-127 -35 -255 -41 -162 -8 -275 22 -343 90 -34 34 -86 123 -91 156 -1 7 -4 18
-8 23 -3 6 -9 30 -13 55 -3 25 -8 57 -11 72 -4 24 6 33 112 103 64 42 123 83
131 91 8 8 17 14 21 14 4 0 21 13 38 28 17 15 49 41 70 57 150 118 379 339
500 485 163 195 309 450 349 610 25 100 38 182 40 265 2 89 -2 134 -20 240
-13 79 -70 167 -126 195 -50 26 -128 32 -205 15z m-24 -405 c35 -40 48 -98 45
-199 -4 -134 -64 -295 -174 -461 -130 -199 -412 -492 -577 -600 -12 -8 -49
-33 -81 -56 -32 -22 -68 -46 -81 -53 -23 -12 -23 -12 -17 36 4 26 11 67 16 91
5 23 12 59 15 80 3 20 10 42 15 48 5 6 7 13 4 16 -6 6 65 225 101 311 37 89
159 333 174 347 3 3 29 41 57 85 143 220 352 402 446 389 19 -3 42 -17 57 -34z
m6250 -984 c0 -2 -6 -11 -12 -18 -24 -25 -58 -77 -58 -88 0 -5 -3 -10 -8 -10
-4 0 -39 -47 -77 -105 -39 -58 -73 -105 -77 -105 -5 0 -8 -5 -8 -10 0 -11
-112 -167 -147 -205 -10 -11 -26 -32 -35 -46 -9 -14 -23 -33 -30 -40 -7 -8
-37 -44 -67 -79 -234 -279 -443 -416 -616 -404 -136 10 -205 104 -200 275 4
179 77 327 226 462 77 70 67 62 159 123 96 64 234 131 325 158 6 2 17 6 25 9
42 18 209 55 285 64 28 3 70 8 95 12 57 8 220 13 220 7z"/>
<path d="M16928 13295 c-2 -1 -28 -5 -58 -8 -49 -6 -92 -16 -140 -35 -8 -3
-17 -6 -20 -6 -3 -1 -35 -18 -71 -38 -76 -43 -149 -116 -177 -179 -41 -89 -48
-219 -16 -281 36 -69 142 -146 226 -165 43 -10 221 -10 278 0 47 8 144 37 195
58 17 7 32 13 35 14 13 4 66 30 70 35 3 3 23 18 45 34 100 74 129 129 129 246
1 70 -3 93 -22 128 -53 100 -149 165 -274 188 -36 6 -195 14 -200 9z"/>
<path d="M2181 12740 c-82 -30 -393 -186 -553 -278 -21 -12 -55 -32 -75 -43
-45 -26 -59 -34 -195 -117 -57 -35 -112 -68 -123 -75 -11 -7 -22 -14 -25 -17
-3 -3 -30 -21 -60 -40 -30 -19 -57 -37 -60 -40 -3 -3 -12 -9 -21 -15 -48 -30
-112 -74 -176 -122 -40 -29 -77 -53 -82 -53 -5 0 -11 -3 -13 -7 -1 -5 -41 -37
-88 -72 -47 -35 -89 -69 -95 -75 -5 -6 -28 -24 -50 -41 -21 -16 -81 -71 -131
-122 -150 -151 -171 -221 -104 -357 89 -184 396 -511 665 -710 22 -17 42 -32
45 -35 3 -4 12 -10 21 -16 9 -5 51 -34 93 -63 41 -29 78 -51 80 -50 2 2 15 -6
28 -17 40 -35 187 -110 273 -140 118 -42 167 -24 297 108 100 102 126 134 155
194 22 47 23 55 9 68 -8 8 -18 15 -21 15 -6 0 -28 16 -82 60 -7 6 -15 10 -18
10 -3 0 -11 5 -18 10 -38 32 -107 80 -115 80 -6 0 -12 7 -16 15 -3 8 -12 15
-21 15 -8 0 -15 4 -15 8 0 4 -20 21 -45 37 -25 15 -56 38 -69 49 -12 12 -45
37 -72 55 -27 19 -51 38 -54 41 -3 3 -41 35 -85 70 -197 159 -349 314 -382
390 -16 38 12 73 147 189 30 25 62 53 71 61 10 8 24 20 31 25 7 6 27 21 44 35
17 14 44 34 60 45 15 11 41 31 58 45 23 19 243 178 346 250 116 81 257 181
265 187 9 8 107 73 235 155 62 40 116 71 177 103 l42 22 -35 53 c-35 53 -104
129 -104 114 0 -4 -5 -3 -12 4 -17 17 -64 14 -127 -8z"/>
<path d="M6194 12739 c-22 -10 -59 -36 -82 -57 l-40 -38 181 -181 c197 -196
312 -315 394 -408 29 -33 66 -76 83 -95 115 -130 200 -263 200 -311 0 -19 -55
-79 -120 -132 -59 -47 -256 -180 -385 -259 -38 -23 -71 -46 -73 -50 -2 -5 -8
-8 -14 -8 -6 0 -26 -11 -44 -25 -18 -14 -35 -25 -38 -25 -3 0 -55 -31 -116
-70 -61 -38 -115 -70 -120 -70 -5 0 -15 -6 -22 -13 -7 -7 -33 -24 -58 -39 -25
-14 -90 -51 -145 -83 -135 -78 -189 -107 -335 -183 -69 -35 -124 -70 -122 -76
7 -26 72 -147 83 -156 4 -3 24 -27 45 -55 44 -58 131 -142 157 -151 9 -3 17
-10 17 -15 0 -5 9 -9 19 -9 11 0 22 -4 26 -9 10 -17 109 -4 180 24 64 25 323
153 335 165 3 3 23 14 45 25 22 11 42 23 45 26 3 3 36 23 73 45 38 21 81 47
95 56 15 10 40 25 56 34 16 9 34 20 40 25 16 14 178 119 183 119 2 0 9 5 16
11 7 5 66 48 132 94 66 46 125 88 130 92 6 5 37 29 70 53 33 24 62 47 63 52 2
4 10 8 17 8 7 0 15 4 17 8 2 5 37 37 78 72 110 93 216 206 258 274 45 76 47
132 7 221 -23 49 -94 164 -115 185 -3 3 -23 28 -45 55 -52 66 -88 104 -221
238 -96 97 -152 150 -274 258 -57 50 -270 218 -299 235 -17 10 -31 22 -31 26
0 4 -4 8 -9 8 -5 0 -37 18 -71 41 -82 54 -159 89 -195 88 -16 0 -48 -9 -71
-20z"/>
</g>
</svg>
