<?xml version="1.0" standalone="no"?>
<!DOCTYPE svg PUBLIC "-//W3C//DTD SVG 20010904//EN"
 "http://www.w3.org/TR/2001/REC-SVG-20010904/DTD/svg10.dtd">
<svg version="1.0" xmlns="http://www.w3.org/2000/svg"
 width="144.000000pt" height="144.000000pt" viewBox="0 0 144.000000 144.000000"
 preserveAspectRatio="xMidYMid meet">
<metadata>
Created by potrace 1.11, written by Peter Selinger 2001-2013
</metadata>
<g transform="translate(0.000000,144.000000) scale(0.100000,-0.100000)"
fill="#000000" stroke="none">
<path d="M575 1425 c-222 -50 -399 -185 -495 -380 -60 -120 -79 -207 -75 -345
5 -199 66 -340 210 -486 89 -90 174 -143 293 -182 100 -33 290 -37 392 -9 207
57 387 208 474 398 50 110 61 166 60 304 -1 112 -4 141 -27 210 -74 225 -249
400 -472 471 -98 32 -265 40 -360 19z m285 -86 c215 -43 420 -243 475 -464 17
-69 22 -187 11 -259 -4 -28 -20 -82 -35 -121 -136 -350 -536 -508 -871 -343
-67 33 -102 60 -165 123 -127 127 -188 272 -188 445 1 406 369 700 773 619z"/>
<path d="M352 878 c-14 -14 -15 -37 -3 -57 5 -8 31 -16 57 -18 140 -14 252
-126 269 -270 7 -58 14 -66 51 -61 29 3 29 4 28 68 -1 150 -120 294 -276 336
-65 17 -110 18 -126 2z"/>
<path d="M965 876 c-64 -16 -107 -38 -155 -82 l-38 -35 21 -38 22 -39 41 38
c51 47 91 68 141 75 83 12 93 16 99 41 13 52 -30 65 -131 40z"/>
</g>
</svg>
