<?xml version="1.0" standalone="no"?>
<!DOCTYPE svg PUBLIC "-//W3C//DTD SVG 20010904//EN"
 "http://www.w3.org/TR/2001/REC-SVG-20010904/DTD/svg10.dtd">
<svg version="1.0" xmlns="http://www.w3.org/2000/svg"
 width="256.000000pt" height="256.000000pt" viewBox="0 0 256.000000 256.000000"
 preserveAspectRatio="xMidYMid meet">

<g transform="translate(0.000000,256.000000) scale(0.100000,-0.100000)"
fill="#000000" stroke="none">
<path d="M1077 2524 c-161 -25 -346 -97 -487 -190 -282 -185 -473 -467 -546
-804 -26 -119 -26 -381 0 -500 98 -452 407 -801 839 -945 649 -217 1357 129
1585 775 53 150 67 238 67 420 0 182 -14 270 -67 420 -94 264 -275 492 -514
645 -250 160 -574 227 -877 179z m874 -573 l29 -29 0 -647 0 -647 -29 -29 -29
-29 -642 0 -642 0 -29 29 -29 29 0 647 0 647 29 29 29 29 642 0 642 0 29 -29z"/>
<path d="M828 1724 c-36 -19 -48 -43 -48 -94 0 -81 89 -131 167 -94 75 37 89
134 26 184 -31 24 -104 27 -145 4z"/>
<path d="M1442 1439 c-18 -6 -51 -28 -72 -49 l-40 -40 0 45 0 45 -105 0 -105
0 0 -320 0 -320 105 0 105 0 0 189 c0 104 4 201 10 216 17 46 58 75 105 75 96
0 115 -52 115 -310 l0 -170 106 0 106 0 -5 228 c-4 260 -10 284 -77 354 -62
64 -152 84 -248 57z"/>
<path d="M790 1120 l0 -320 105 0 105 0 0 320 0 320 -105 0 -105 0 0 -320z"/>
</g>
</svg>
