<?xml version="1.0" standalone="no"?>
<!DOCTYPE svg PUBLIC "-//W3C//DTD SVG 20010904//EN"
 "http://www.w3.org/TR/2001/REC-SVG-20010904/DTD/svg10.dtd">
<svg version="1.0" xmlns="http://www.w3.org/2000/svg"
 width="256.000000pt" height="256.000000pt" viewBox="0 0 256.000000 256.000000"
 preserveAspectRatio="xMidYMid meet">

<g transform="translate(0.000000,256.000000) scale(0.100000,-0.100000)"
fill="#000000" stroke="none">
<path d="M1135 2534 c-216 -33 -387 -96 -545 -200 -282 -185 -473 -467 -546
-804 -26 -119 -26 -381 0 -500 108 -498 472 -866 971 -983 124 -29 390 -30
515 -3 443 96 791 399 938 816 54 153 67 237 66 425 0 136 -4 188 -21 260
-101 433 -399 774 -803 920 -134 48 -234 66 -395 70 -82 2 -163 1 -180 -1z
m660 -607 c50 -23 110 -80 138 -132 22 -39 22 -50 25 -509 2 -404 1 -476 -13
-523 -19 -66 -77 -132 -140 -162 -44 -20 -58 -21 -532 -21 -451 0 -491 2 -528
19 -54 24 -103 75 -131 136 l-24 50 0 471 c0 331 3 481 12 505 18 53 64 115
105 140 75 46 99 48 588 46 419 -2 464 -4 500 -20z"/>
<path d="M1570 1669 l0 -122 61 7 c34 3 86 6 115 6 l54 0 0 115 0 115 -115 0
-115 0 0 -121z"/>
<path d="M1191 1486 c-93 -34 -155 -123 -155 -226 0 -237 301 -327 439 -132
25 37 30 55 33 116 3 48 -1 83 -10 106 -49 117 -189 179 -307 136z"/>
<path d="M720 1107 c0 -327 3 -342 71 -379 32 -17 63 -18 496 -16 l462 3 30
29 c17 17 36 46 41 65 5 20 10 161 10 314 l0 277 -104 0 -103 0 14 -52 c44
-161 -45 -347 -203 -424 -53 -26 -69 -29 -159 -29 -87 0 -107 3 -157 27 -79
37 -142 98 -181 177 -28 57 -32 75 -32 146 0 44 4 97 8 118 l8 37 -101 0 -100
0 0 -293z"/>
</g>
</svg>
